HIERARCHY
ROOT Hips
{
  OFFSET 5.72205e-005 65.662 3.42586
  CHANNELS 6 Xposition Yposition Zposition Zrotation Xrotation Yrotation
  JOINT Chest
  {
    OFFSET 0 8.7983 -4.7612
    CHANNELS 3 Zrotation Xrotation Yrotation
    JOINT Chest2
    {
      OFFSET 0 8.0291 0.4195
      CHANNELS 3 Zrotation Xrotation Yrotation
      JOINT Chest3
      {
        OFFSET 0 9.9351 -2.2114
        CHANNELS 3 Zrotation Xrotation Yrotation
        JOINT Neck
        {
          OFFSET 0 22.3885 -0.4656
          CHANNELS 3 Zrotation Xrotation Yrotation
          JOINT Head
          {
            OFFSET -0.0001 12.643 3.4389
            CHANNELS 3 Zrotation Xrotation Yrotation
            End Site
            {
              OFFSET 0.0001 17.6655 0.5274
            }
          }
        }
        JOINT LeftCollar
        {
          OFFSET 2.2603 21.606 7.4023
          CHANNELS 3 Zrotation Xrotation Yrotation
          JOINT LeftShoulder
          {
            OFFSET 13.5163 -1.1332 -5.0146
            CHANNELS 3 Zrotation Xrotation Yrotation
            JOINT LeftElbow
            {
              OFFSET -0.0995 -28.05 -0.2431
              CHANNELS 3 Zrotation Xrotation Yrotation
              JOINT LeftWrist
              {
                OFFSET 0.0679 -23.3996 -0.1402
                CHANNELS 3 Zrotation Xrotation Yrotation
                JOINT LeftFinger1
                {
                  OFFSET 0.7932 -9.069 2.5189
                  CHANNELS 3 Zrotation Xrotation Yrotation
                  JOINT LeftFinger11
                  {
                    OFFSET -0.8272 -3.3923 0.5977
                    CHANNELS 3 Zrotation Xrotation Yrotation
                    JOINT LeftFinger12
                    {
                      OFFSET -0.5649 -2.3158 0.4082
                      CHANNELS 3 Zrotation Xrotation Yrotation
                      End Site
                      {
                        OFFSET -0.4919 -1.6479 0.2673
                      }
                    }
                  }
                }
                JOINT LeftFinger2
                {
                  OFFSET 0.9159 -9.2044 0.2193
                  CHANNELS 3 Zrotation Xrotation Yrotation
                  JOINT LeftFinger21
                  {
                    OFFSET 0.0117 -4.1944 -0.0248
                    CHANNELS 3 Zrotation Xrotation Yrotation
                    JOINT LeftFinger22
                    {
                      OFFSET 0.0071 -2.3249 -0.0142
                      CHANNELS 3 Zrotation Xrotation Yrotation
                      End Site
                      {
                        OFFSET -0.1475 -2.0882 0.0028
                      }
                    }
                  }
                }
                JOINT LeftFinger3
                {
                  OFFSET 0.6113 -8.7231 -2.0637
                  CHANNELS 3 Zrotation Xrotation Yrotation
                  JOINT LeftFinger31
                  {
                    OFFSET -0.1927 -3.8059 -0.2383
                    CHANNELS 3 Zrotation Xrotation Yrotation
                    JOINT LeftFinger32
                    {
                      OFFSET -0.1091 -2.1688 -0.1362
                      CHANNELS 3 Zrotation Xrotation Yrotation
                      End Site
                      {
                        OFFSET -0.2358 -1.9176 -0.0906
                      }
                    }
                  }
                }
                JOINT LeftFinger4
                {
                  OFFSET -0.6151 -8.0947 -3.5641
                  CHANNELS 3 Zrotation Xrotation Yrotation
                  JOINT LeftFinger41
                  {
                    OFFSET -0.4882 -2.341 -0.6462
                    CHANNELS 3 Zrotation Xrotation Yrotation
                    JOINT LeftFinger42
                    {
                      OFFSET -0.3575 -1.7167 -0.4742
                      CHANNELS 3 Zrotation Xrotation Yrotation
                      End Site
                      {
                        OFFSET -0.4187 -1.5237 -0.3496
                      }
                    }
                  }
                }
                JOINT LeftFinger0
                {
                  OFFSET -1.42 -1.8761 1.4223
                  CHANNELS 3 Zrotation Xrotation Yrotation
                  JOINT LeftFinger01
                  {
                    OFFSET -1.1471 -3.4929 2.6334
                    CHANNELS 3 Zrotation Xrotation Yrotation
                    JOINT LeftFinger02
                    {
                      OFFSET -0.823 -2.3 1.6571
                      CHANNELS 3 Zrotation Xrotation Yrotation
                      End Site
                      {
                        OFFSET -0.5822 -1.6914 1.1582
                      }
                    }
                  }
                }
              }
            }
          }
        }
        JOINT RightCollar
        {
          OFFSET -2.2603 21.606 7.4023
          CHANNELS 3 Zrotation Xrotation Yrotation
          JOINT RightShoulder
          {
            OFFSET -13.5187 -1.1334 -5.0155
            CHANNELS 3 Zrotation Xrotation Yrotation
            JOINT RightElbow
            {
              OFFSET 0.0994 -28.0499 -0.2431
              CHANNELS 3 Zrotation Xrotation Yrotation
              JOINT RightWrist
              {
                OFFSET -0.0679 -23.3996 -0.1402
                CHANNELS 3 Zrotation Xrotation Yrotation
                JOINT RightFinger1
                {
                  OFFSET -0.7932 -9.0691 2.5189
                  CHANNELS 3 Zrotation Xrotation Yrotation
                  JOINT RightFinger11
                  {
                    OFFSET 0.8272 -3.3923 0.5977
                    CHANNELS 3 Zrotation Xrotation Yrotation
                    JOINT RightFinger12
                    {
                      OFFSET 0.565 -2.3158 0.4082
                      CHANNELS 3 Zrotation Xrotation Yrotation
                      End Site
                      {
                        OFFSET 0.4919 -1.6479 0.2673
                      }
                    }
                  }
                }
                JOINT RightFinger2
                {
                  OFFSET -0.916 -9.2044 0.2193
                  CHANNELS 3 Zrotation Xrotation Yrotation
                  JOINT RightFinger21
                  {
                    OFFSET -0.0117 -4.1944 -0.0248
                    CHANNELS 3 Zrotation Xrotation Yrotation
                    JOINT RightFinger22
                    {
                      OFFSET -0.0071 -2.3249 -0.0142
                      CHANNELS 3 Zrotation Xrotation Yrotation
                      End Site
                      {
                        OFFSET 0.1475 -2.0882 0.0028
                      }
                    }
                  }
                }
                JOINT RightFinger3
                {
                  OFFSET -0.6113 -8.7231 -2.0637
                  CHANNELS 3 Zrotation Xrotation Yrotation
                  JOINT RightFinger31
                  {
                    OFFSET 0.1927 -3.8059 -0.2383
                    CHANNELS 3 Zrotation Xrotation Yrotation
                    JOINT RightFinger32
                    {
                      OFFSET 0.1091 -2.1688 -0.1362
                      CHANNELS 3 Zrotation Xrotation Yrotation
                      End Site
                      {
                        OFFSET 0.2358 -1.9176 -0.0906
                      }
                    }
                  }
                }
                JOINT RightFinger4
                {
                  OFFSET 0.6151 -8.0947 -3.564
                  CHANNELS 3 Zrotation Xrotation Yrotation
                  JOINT RightFinger41
                  {
                    OFFSET 0.4882 -2.341 -0.6462
                    CHANNELS 3 Zrotation Xrotation Yrotation
                    JOINT RightFinger42
                    {
                      OFFSET 0.3574 -1.7166 -0.4742
                      CHANNELS 3 Zrotation Xrotation Yrotation
                      End Site
                      {
                        OFFSET 0.4187 -1.5237 -0.3496
                      }
                    }
                  }
                }
                JOINT RightFinger0
                {
                  OFFSET 1.4199 -1.8761 1.4221
                  CHANNELS 3 Zrotation Xrotation Yrotation
                  JOINT RightFinger01
                  {
                    OFFSET 1.1472 -3.4929 2.6336
                    CHANNELS 3 Zrotation Xrotation Yrotation
                    JOINT RightFinger02
                    {
                      OFFSET 0.8229 -2.3 1.6571
                      CHANNELS 3 Zrotation Xrotation Yrotation
                      End Site
                      {
                        OFFSET 0.5822 -1.6914 1.1582
                      }
                    }
                  }
                }
              }
            }
          }
        }
      }
    }
  }
  JOINT RightHip
  {
    OFFSET -9.412 3.9771 -0.7758
    CHANNELS 3 Zrotation Xrotation Yrotation
    JOINT RightKnee
    {
      OFFSET -0.7531 -40.938 0
      CHANNELS 3 Zrotation Xrotation Yrotation
      JOINT RightAnkle
      {
        OFFSET 0 -40.1986 0
        CHANNELS 3 Zrotation Xrotation Yrotation
        JOINT RightToe
        {
          OFFSET 0 -4.4182 9.239
          CHANNELS 3 Zrotation Xrotation Yrotation
          End Site
          {
            OFFSET 0 0 6.1981
          }
        }
      }
    }
  }
  JOINT LeftHip
  {
    OFFSET 9.4119 3.9773 -0.7758
    CHANNELS 3 Zrotation Xrotation Yrotation
    JOINT LeftKnee
    {
      OFFSET 0.7532 -40.9383 0
      CHANNELS 3 Zrotation Xrotation Yrotation
      JOINT LeftAnkle
      {
        OFFSET 0 -40.1986 0
        CHANNELS 3 Zrotation Xrotation Yrotation
        JOINT LeftToe
        {
          OFFSET 0 -4.4182 9.239
          CHANNELS 3 Zrotation Xrotation Yrotation
          End Site
          {
            OFFSET 0 0 6.1981
          }
        }
      }
    }
  }
}
MOTION
Frames:	7
Frame Time:	0.0333333
5.72205e-005 65.662 3.42586 0 0 -0 0 0 -0 0 0 -0 0 0 -0 0 0 -0 0 0 -0 0 0 -12.5014 88.1196 14.2451 10.6914 -0.00160068 -0.00239207 0.000740045 -8.4365e-005 7.00714e-005 -9.52055e-007 9.93923e-017 -1.98785e-016 -1.59028e-015 9.93923e-017 -5.96354e-016 -1.59028e-015 -9.93923e-017 -5.96354e-016 -1.59028e-015 9.93923e-017 -1.98785e-016 -1.59028e-015 -0.0128176 0.00232552 8.52707e-005 9.93923e-017 5.96354e-016 -0 9.93923e-017 -1.98785e-016 -1.59028e-015 -0.0160551 0.00299681 0.000857156 -2.48481e-016 0 3.18055e-015 9.93923e-017 -1.98785e-016 -1.59028e-015 -0.0125865 0.0031206 0.00282719 0 1.98785e-016 -0 9.93923e-017 -1.98785e-016 -1.59028e-015 9.93923e-017 -5.96354e-016 -1.59028e-015 -9.93923e-017 -5.96354e-016 -1.59028e-015 -0.865644 0.16582 7.03859 -88.0329 10.2057 -10.5567 0.0015593 -0.00248883 -0.000788628 7.87605e-005 4.10553e-005 1.24965e-005 -3.97569e-016 -7.95139e-016 3.18055e-015 -1.98785e-016 -3.97569e-016 3.18055e-015 -1.98785e-016 0 3.18055e-015 -3.97569e-016 -7.95139e-016 3.18055e-015 0.0129473 0.00231697 -8.70038e-005 9.93923e-017 -7.95139e-016 1.59028e-015 -3.97569e-016 -7.95139e-016 3.18055e-015 0.0163314 0.00303369 -0.000872333 3.97569e-016 7.95139e-016 -3.18055e-015 -3.97569e-016 -7.95139e-016 3.18055e-015 0.0145763 0.00367772 -0.00326275 9.93923e-017 -3.97569e-016 -0 -3.97569e-016 -7.95139e-016 3.18055e-015 -1.98785e-016 -3.97569e-016 3.18055e-015 -1.98785e-016 0 3.18055e-015 3.42482 1.32465 -0.0626183 0.000117508 0.717283 0.000978199 -3.4257 -2.04197 -0.0604716 6.47761e-025 0 -0 -3.42483 1.34017 0.0627307 -0.000193936 0.682302 -0.0013703 3.42574 -2.02253 0.0595886 -8.45714e-024 0 -7.40531e-025 
0.826771 63.4116 22.5514 2.42118e-007 29.9987 -5.77466e-008 0.365726 -1.27893 -0.449722 0.721662 -2.5607 -0.891597 0.721663 -2.56067 -0.891598 -4.18836e-005 0.2257 5.11053e-005 9.46716e-007 0.215082 1.22461e-010 -23.979 31.0834 -18.725 58.9067 -20.9085 83.2643 -86.902 -3.40629 10.1694 11.2342 -39.0312 -128.202 -3.18055e-015 4.77083e-015 -3.18055e-015 5.28247e-006 -8.95551e-006 -1.0535e-005 2.20695e-031 -3.18055e-015 3.97569e-015 -3.18055e-015 4.77083e-015 -3.18055e-015 -0.012767 0.0023114 8.32049e-005 -6.36111e-015 -3.18055e-015 4.77083e-015 -3.18055e-015 4.77083e-015 -3.18055e-015 -0.0160926 0.00300878 0.000856282 3.18055e-015 -1.59028e-015 -0 -3.18055e-015 4.77083e-015 -3.18055e-015 -0.0126065 0.00311499 0.00282544 6.36111e-015 -3.18055e-015 -0 -3.18055e-015 4.77083e-015 -3.18055e-015 5.28247e-006 -8.95551e-006 -1.0535e-005 2.20695e-031 -3.18055e-015 3.97569e-015 22.0578 29.2635 14.0493 -55.9251 -24.3826 -79.8827 86.8106 -2.33695 -8.9269 -10.5968 -36.056 130.395 3.18055e-015 1.59028e-015 4.77083e-015 3.18055e-015 0 -7.95139e-016 3.18055e-015 0 -3.97569e-015 3.18055e-015 1.59028e-015 4.77083e-015 0.0129261 0.00231734 -9.52837e-005 6.36111e-015 4.77083e-015 -7.15625e-015 3.18055e-015 1.59028e-015 4.77083e-015 0.0163564 0.00303574 -0.00087437 -3.18055e-015 0 1.03368e-014 3.18055e-015 1.59028e-015 4.77083e-015 0.0145431 0.00367095 -0.00326103 6.1026e-006 -2.36972e-006 -5.67163e-007 3.18055e-015 1.59028e-015 4.77083e-015 3.18055e-015 0 -7.95139e-016 3.18055e-015 0 -3.97569e-015 -23.3559 -53.7142 -16.486 5.51247 32.5878 -4.89931 -0.506904 7.9883 -22.6561 -8.893e-007 2.30149e-006 2.89046e-006 22.7984 -54.2674 18.9358 -5.47431 33.9223 5.02987 2.83021 6.57939 20.3301 8.17913e-007 -2.29831e-006 1.28354e-007 
0.826919 63.4004 23.1163 -1.0551e-008 29.0021 2.18288e-007 0.36231 -0.925495 -0.455372 0.717389 -1.85385 -0.905055 0.717388 -1.85385 -0.905054 -2.11512e-005 0.305246 2.60035e-005 -2.01585e-007 0.290724 9.56182e-008 -23.979 31.0833 -18.725 58.9067 -20.9085 83.2644 -86.9021 -3.40628 10.1694 10.4983 -39.2924 -128.677 -3.18055e-015 0 -2.38542e-015 -6.36111e-015 1.59028e-015 7.15625e-015 0 0 -7.95139e-016 -3.18055e-015 0 -2.38542e-015 -0.0127857 0.0023179 9.16964e-005 6.36111e-015 -1.59028e-015 -7.95139e-015 -3.18055e-015 0 -2.38542e-015 -0.0161226 0.00299782 0.000859327 -4.41391e-031 3.18055e-015 7.95139e-015 -3.18055e-015 0 -2.38542e-015 -0.0126189 0.00311306 0.00282596 -8.82781e-032 -1.59028e-015 -3.18055e-015 -3.18055e-015 0 -2.38542e-015 -6.36111e-015 1.59028e-015 7.15625e-015 0 0 -7.95139e-016 22.0578 29.2634 14.0493 -55.9251 -24.3826 -79.8827 86.8106 -2.33695 -8.92706 -9.88398 -36.3002 130.814 -4.37058e-006 -2.10685e-006 4.86643e-006 3.05618e-006 -9.33345e-007 6.84962e-007 1.52809e-006 1.12912e-006 3.42481e-007 -4.37058e-006 -2.10685e-006 4.86643e-006 0.01294 0.00232656 -8.46046e-005 -1.98626e-031 -1.59028e-015 -7.15625e-015 -4.37058e-006 -2.10685e-006 4.86643e-006 0.0164067 0.00303217 -0.000871683 6.1115e-006 5.54755e-006 1.37029e-006 -4.37058e-006 -2.10685e-006 4.86643e-006 0.0145794 0.00367015 -0.00326105 -3.18055e-015 0 -3.18055e-015 -4.37058e-006 -2.10685e-006 4.86643e-006 3.05618e-006 -9.33345e-007 6.84962e-007 1.52809e-006 1.12912e-006 3.42481e-007 -23.7025 -52.2993 -17.7653 5.48835 32.5113 -4.88518 -0.984031 7.62253 -21.2771 -4.87205e-006 1.2687e-006 2.38919e-006 23.1261 -52.8523 20.0477 -5.45706 33.8486 5.01366 3.21579 6.17163 19.1157 2.0912e-006 -8.62147e-007 -4.22905e-006 
0.827143 63.3916 23.681 -1.43386e-007 28.0043 2.5357e-007 0.358875 -0.571332 -0.460951 0.713199 -1.14555 -0.91839 0.713199 -1.14556 -0.918389 -6.8249e-006 0.384848 8.97712e-006 5.42052e-007 0.366388 -5.95225e-007 -23.9789 31.0833 -18.7251 58.9067 -20.9085 83.2644 -86.9021 -3.40619 10.1694 9.75663 -39.549 -129.158 3.18055e-015 -3.18055e-015 7.15625e-015 -4.6346e-031 1.59028e-015 1.66979e-014 2.61565e-006 -5.68207e-006 -1.38351e-006 3.18055e-015 -3.18055e-015 7.15625e-015 -0.0128474 0.00232915 8.33072e-005 3.18055e-015 0 -7.95139e-016 3.18055e-015 -3.18055e-015 7.15625e-015 -0.0160064 0.00298848 0.000851261 -3.18055e-015 1.59028e-015 -7.95139e-016 3.18055e-015 -3.18055e-015 7.15625e-015 -0.0125737 0.00311526 0.00281573 3.18055e-015 0 -7.95139e-016 3.18055e-015 -3.18055e-015 7.15625e-015 -4.6346e-031 1.59028e-015 1.66979e-014 2.61565e-006 -5.68207e-006 -1.38351e-006 22.0578 29.2634 14.0493 -55.9251 -24.3826 -79.8827 86.8106 -2.33688 -8.92699 -9.16654 -36.5404 131.238 -6.36111e-015 0 -0 -3.18055e-015 0 -1.11319e-014 -3.18055e-015 1.59028e-015 -6.36111e-015 -6.36111e-015 0 -0 0.0129368 0.00231995 -8.91799e-005 -6.36111e-015 0 -1.35174e-014 -6.36111e-015 0 -0 0.0162899 0.00303555 -0.000875719 0 0 -4.77083e-015 -6.36111e-015 0 -0 0.0145488 0.00365824 -0.0032536 -3.18055e-015 0 6.36111e-015 -6.36111e-015 0 -0 -3.18055e-015 0 -1.11319e-014 -3.18055e-015 1.59028e-015 -6.36111e-015 -23.9926 -50.876 -18.9985 5.46848 32.4364 -4.87108 -1.45299 7.24331 -19.8994 1.59028e-015 9.54166e-015 -3.18055e-015 23.3987 -51.4312 21.1142 -5.44042 33.7775 4.99781 3.59334 5.75382 17.9028 7.95139e-016 -1.59028e-015 3.18055e-015 
0.827452 63.3852 24.2456 -4.20392e-008 27.0054 1.26425e-007 0.355422 -0.216546 -0.466462 0.709077 -0.435956 -0.931582 0.709082 -0.435969 -0.93159 2.31347e-005 0.464467 -2.94068e-005 -4.06134e-007 0.442052 1.43132e-006 -23.9789 31.0833 -18.7251 58.9067 -20.9085 83.2644 -86.9021 -3.40635 10.1694 9.00905 -39.8008 -129.645 -3.18055e-015 0 -3.18055e-015 -3.18055e-015 0 -3.18055e-015 6.47389e-006 -1.61342e-006 7.14271e-006 -3.18055e-015 0 -3.18055e-015 -0.0128153 0.0023225 8.21963e-005 -6.36111e-015 0 -1.59028e-015 -3.18055e-015 0 -3.18055e-015 -0.0160423 0.00298519 0.000854343 -3.18055e-015 -1.59028e-015 8.74653e-015 -3.18055e-015 0 -3.18055e-015 -0.0125739 0.00312091 0.00282602 9.56282e-006 -3.74709e-007 3.90281e-006 -3.18055e-015 0 -3.18055e-015 -3.18055e-015 0 -3.18055e-015 6.47389e-006 -1.61342e-006 7.14271e-006 22.0579 29.2633 14.0493 -55.9252 -24.3826 -79.8827 86.8106 -2.33691 -8.92701 -8.44428 -36.7763 131.668 6.36111e-015 1.59028e-015 3.18055e-015 7.73528e-006 -1.13747e-007 2.75984e-006 -6.36111e-015 0 -1.59028e-015 6.36111e-015 1.59028e-015 3.18055e-015 0.0129721 0.00231715 -8.17519e-005 1.53692e-006 -1.68733e-006 -1.58166e-006 6.36111e-015 1.59028e-015 3.18055e-015 0.0163117 0.00302319 -0.000867258 6.36111e-015 1.59028e-015 2.38542e-015 6.36111e-015 1.59028e-015 3.18055e-015 0.0144988 0.00365302 -0.00323206 -1.27222e-014 3.18055e-015 4.77083e-015 6.36111e-015 1.59028e-015 3.18055e-015 7.73528e-006 -1.13747e-007 2.75984e-006 -6.36111e-015 0 -1.59028e-015 -24.227 -49.4466 -20.1872 5.45013 32.3633 -4.85717 -1.91339 6.85093 -18.5234 7.95138e-016 3.9453e-006 3.18055e-015 23.6209 -50.0053 22.14 -5.42416 33.7087 4.98228 3.96259 5.32615 16.6919 -3.27396e-006 8.88865e-007 -4.67353e-007 
0.82784 63.3813 24.8099 -2.08396e-008 26.0056 -1.20479e-007 0.35202 0.138834 -0.471994 0.705168 0.274769 -0.944827 0.705168 0.274769 -0.944827 -0.000279628 0.544025 0.00037018 -5.34806e-007 0.517725 -7.19996e-008 -23.9794 31.0831 -18.7247 58.9067 -20.9085 83.2644 -86.902 -3.40629 10.1696 8.25554 -40.0479 -130.139 -0 0 3.97569e-015 1.32417e-031 -1.59028e-015 4.77083e-015 3.18055e-015 -3.18055e-015 4.77083e-015 -0 0 3.97569e-015 -0.0128228 0.00232577 7.94785e-005 -6.36111e-015 -3.18055e-015 -7.95139e-016 -0 0 3.97569e-015 -0.0160843 0.00301111 0.000862504 -3.18055e-015 -1.59028e-015 3.18055e-015 -0 0 3.97569e-015 -0.0126025 0.003114 0.00282052 -3.18055e-015 1.27222e-014 -1.59028e-015 -0 0 3.97569e-015 1.32417e-031 -1.59028e-015 4.77083e-015 3.18055e-015 -3.18055e-015 4.77083e-015 22.0573 29.2634 14.0498 -55.9252 -24.3826 -79.8827 86.8106 -2.33696 -8.92702 -7.71742 -37.0079 132.102 2.64387e-006 6.8567e-006 -1.10717e-005 -1.49991e-006 -7.09497e-007 -2.28539e-006 3.18055e-015 1.59028e-015 1.59028e-015 2.64387e-006 6.8567e-006 -1.10717e-005 0.0129631 0.00232139 -8.0389e-005 6.36111e-015 1.59028e-015 -0 2.64387e-006 6.8567e-006 -1.10717e-005 0.0162658 0.00301037 -0.000862607 -4.66624e-006 -2.11644e-006 -4.00185e-006 2.64387e-006 6.8567e-006 -1.10717e-005 0.0145687 0.00368286 -0.0032507 -7.83366e-006 -8.1174e-007 -5.71812e-006 2.64387e-006 6.8567e-006 -1.10717e-005 -1.49991e-006 -7.09497e-007 -2.28539e-006 3.18055e-015 1.59028e-015 1.59028e-015 -24.4111 -48.0123 -21.3368 5.43394 32.2924 -4.84345 -2.36487 6.44543 -17.1496 -1.63523e-006 -8.65613e-007 -2.43227e-007 23.7967 -48.576 23.1294 -5.40824 33.6428 4.96719 4.32334 4.88873 15.4832 1.66019e-006 4.73703e-006 2.3482e-006 
0.828313 63.3798 25.3741 -1.05831e-008 25.0051 -4.62919e-009 0.348489 0.494652 -0.477304 0.701121 0.986381 -0.957654 0.701127 0.986406 -0.957663 -5.1276e-005 0.623715 6.95039e-005 -1.06625e-008 0.593406 5.26489e-007 -23.979 31.0832 -18.725 58.9066 -20.9085 83.2644 -86.9021 -3.40626 10.1695 7.49664 -40.2899 -130.639 -3.18055e-015 -1.59028e-015 3.97569e-015 3.18055e-015 -1.59028e-015 -1.59028e-015 -6.36111e-015 -3.18055e-015 -2.38542e-015 -3.18055e-015 -1.59028e-015 3.97569e-015 -0.0128883 0.00233409 8.55689e-005 1.51578e-006 1.75324e-006 3.22783e-007 -3.18055e-015 -1.59028e-015 3.97569e-015 -0.0160539 0.00298659 0.000861386 -3.18055e-015 1.59028e-015 6.36111e-015 -3.18055e-015 -1.59028e-015 3.97569e-015 -0.0126799 0.00314964 0.00285375 4.16309e-006 -1.28056e-005 -4.90845e-006 -3.18055e-015 -1.59028e-015 3.97569e-015 3.18055e-015 -1.59028e-015 -1.59028e-015 -6.36111e-015 -3.18055e-015 -2.38542e-015 22.0577 29.2633 14.0494 -55.9251 -24.3826 -79.8827 86.8106 -2.33695 -8.92701 -6.9859 -37.2352 132.542 -3.31043e-031 -1.59028e-015 -1.19271e-014 3.18055e-015 0 -1.43125e-014 9.54166e-015 -4.77083e-015 -6.36111e-015 -3.31043e-031 -1.59028e-015 -1.19271e-014 0.0129047 0.00231291 -9.43817e-005 3.18055e-015 -4.77083e-015 -1.03368e-014 -3.31043e-031 -1.59028e-015 -1.19271e-014 0.0163056 0.00302914 -0.000870859 -4.32979e-006 -5.00203e-006 2.8837e-006 -3.31043e-031 -1.59028e-015 -1.19271e-014 0.0145771 0.00368117 -0.00327655 -2.48247e-006 -1.03918e-005 1.01337e-005 -3.31043e-031 -1.59028e-015 -1.19271e-014 3.18055e-015 0 -1.43125e-014 9.54166e-015 -4.77083e-015 -6.36111e-015 -24.5458 -46.5766 -22.4489 5.41718 32.225 -4.83008 -2.80701 6.02706 -15.7785 -2.47432e-006 -4.92169e-007 2.6624e-006 23.9308 -47.1439 24.0869 -5.39324 33.5796 4.95244 4.67538 4.4418 14.277 7.95139e-015 -4.77083e-015 -1.27222e-014 
